# xmcd
#
# Track frame offsets:
#	150
#	23896
#	42352
#	60506
#	80449
#	99779
#	124583
#	142700
#	158509
#	175245
#
# Disc length: 2545 seconds
#
# Revision: 10
# Processed by: cddbd v1.5.2PL0 Copyright (c) Steve Scherf et al.
# Submitted via: Jack! The Knife 19 Blackthorn
#
DISCID=6b09ef0a
DTITLE=Saxon - Innocence Is No Excuse
DYEAR=1985
DGENRE=Heavy Metal
TTITLE0=Rockin' Again
TTITLE1=Call Of The Wild
TTITLE2=Back On The Streets
TTITLE3=Devil Rides Out
TTITLE4=Rock'n'Roll Gypsy
TTITLE5=Broken Heroes
TTITLE6=Gonna Shout
TTITLE7=Everybody Up
TTITLE8=Raise Some Hell
TTITLE9=Give It Everything You've Got
EXTD=Simon Hanhart
EXTT0=Byford, Oliver, Dawson
EXTT1=Byford, Quinn, Oliver, Dawson, Glockler
EXTT2=Byford, Quinn, Oliver, Dawson, Glockler
EXTT3=Byford, Dawson
EXTT4=Byford, Dawson
EXTT5=Byford, Dawson
EXTT6=Byford, Quinn, Oliver, Dawson, Glockler
EXTT7=Byford, Dawson
EXTT8=Byford, Dawson
EXTT9=Byford, Quinn, Oliver, Dawson, Glockler
PLAYORDER=
